<svg xmlns="http://www.w3.org/2000/svg" width="38" height="38" fill="none" viewBox="0 0 38 38">
    <path fill="#fff" fill-rule="evenodd" d="M21.689 10.321a4.33 4.33 0 0 1 5.364-1.633c.842.658 1.6 1.417 2.26 2.259a4.33 4.33 0 0 1-1.633 5.364 9.105 9.105 0 0 0-5.991-5.99Zm-4.271-.267a8.35 8.35 0 0 1 2.934-4.068A13.234 13.234 0 0 0 19 5.916C11.774 5.917 5.917 11.775 5.917 19S11.774 32.083 19 32.083 32.083 26.226 32.083 19c0-.456-.023-.907-.069-1.352a8.35 8.35 0 0 1-4.068 2.934 9.083 9.083 0 1 1-10.528-10.528Z" clip-rule="evenodd"/>
    <circle cx="25.333" cy="12.667" r="6.333" fill="#fff"/>
</svg>