<svg xmlns="http://www.w3.org/2000/svg" width="21" height="23" fill="none" viewBox="0 0 21 23">
    <path fill="#fff" fill-rule="evenodd" d="M3.54 1.453 13.528.297c3.12-.361 4.681-.542 5.685.353 1.005.895 1.005 2.465 1.005 5.607v4.456h-9.226l4.037-3.677-1.346-1.479-5.947 5.417-.811.739.811.74 5.947 5.416 1.346-1.479-4.037-3.677h9.226v3.475c0 3.142 0 4.712-1.005 5.607-1.004.895-2.564.714-5.685.353L3.54 20.992c-1.684-.195-2.527-.292-3.033-.86C0 19.561 0 18.713 0 17.018V5.426C0 3.73 0 2.883.507 2.314c.506-.569 1.349-.666 3.033-.861Z" clip-rule="evenodd"/>
</svg>