<svg xmlns="http://www.w3.org/2000/svg" width="33" height="33" fill="none" viewBox="0 0 33 33">
    <path fill="#fff" fill-rule="evenodd" d="M16.561 3v10.258c-2.854-.192-5.522-1.198-7.521-2.823a9.823 9.823 0 0 1-2.304-2.647A14.525 14.525 0 0 1 16.561 3Zm2 0v10.258c2.855-.192 5.523-1.198 7.522-2.823a9.825 9.825 0 0 0 2.303-2.647A14.525 14.525 0 0 0 18.561 3ZM29.69 9.465a12.058 12.058 0 0 1-2.345 2.522c-2.382 1.936-5.504 3.08-8.783 3.275v4.53c1.465.087 2.907.364 4.273.824 1.675.564 3.21 1.394 4.51 2.451a12.055 12.055 0 0 1 2.345 2.523 14.493 14.493 0 0 0 2.434-8.062c0-2.982-.897-5.755-2.434-8.063Zm-1.303 17.802a9.836 9.836 0 0 0-2.303-2.648c-1.103-.896-2.422-1.615-3.887-2.108a14.456 14.456 0 0 0-3.635-.714v10.258a14.526 14.526 0 0 0 9.825-4.788Zm-11.825 4.788V21.797c-1.25.084-2.476.325-3.634.714-1.465.493-2.785 1.212-3.887 2.108a9.837 9.837 0 0 0-2.304 2.648 14.526 14.526 0 0 0 9.825 4.788ZM5.434 25.59a12.054 12.054 0 0 1 2.344-2.523c1.301-1.057 2.835-1.887 4.511-2.451a16.466 16.466 0 0 1 4.272-.823v-4.531c-3.278-.194-6.4-1.34-8.783-3.275-.923-.75-1.71-1.6-2.344-2.522A14.494 14.494 0 0 0 3 17.528c0 2.981.896 5.753 2.434 8.062Z" clip-rule="evenodd"/>
</svg>