<svg xmlns="http://www.w3.org/2000/svg" width="33" height="33" fill="none" viewBox="0 0 33 33">
    <path stroke="#fff" stroke-width="3" d="M2.75 16.5c0-2.57 0-3.855.553-4.813a4.125 4.125 0 0 1 1.51-1.51c.957-.552 2.242-.552 4.812-.552h13.75c2.57 0 3.855 0 4.813.553a4.126 4.126 0 0 1 1.51 1.51c.552.957.552 2.242.552 4.812 0 2.57 0 3.855-.553 4.813a4.126 4.126 0 0 1-1.51 1.51c-.957.552-2.242.552-4.812.552H9.625c-2.57 0-3.855 0-4.813-.553a4.125 4.125 0 0 1-1.51-1.51c-.552-.957-.552-2.242-.552-4.812ZM26.125 5.5a2.75 2.75 0 0 0-2.75-2.75H9.625a2.75 2.75 0 0 0-2.75 2.75M26.125 27.5a2.75 2.75 0 0 1-2.75 2.75H9.625a2.75 2.75 0 0 1-2.75-2.75"/>
    <rect width="6.875" height="1.375" x="7.563" y="14.438" stroke="#fff" stroke-width="1.375" rx=".688"/>
</svg>