<svg width="23" height="20" viewBox="0 0 23 20" fill="none"
     xmlns="http://www.w3.org/2000/svg">
    <path
            d="M1.09678 12.2387C1.27937 12.2387 1.45448 12.3111 1.58359 12.4401C1.7127 12.569 1.78524 12.7439 1.78524 12.9262V16.3637C1.78524 16.7284 1.9303 17.0781 2.18852 17.336C2.44675 17.5938 2.79697 17.7387 3.16215 17.7387H19.6851C20.0503 17.7387 20.4005 17.5938 20.6587 17.336C20.9169 17.0781 21.062 16.7284 21.062 16.3637V12.9262C21.062 12.7439 21.1345 12.569 21.2636 12.4401C21.3927 12.3111 21.5679 12.2387 21.7504 12.2387C21.933 12.2387 22.1081 12.3111 22.2373 12.4401C22.3664 12.569 22.4389 12.7439 22.4389 12.9262V16.3637C22.4389 17.0931 22.1488 17.7925 21.6323 18.3083C21.1159 18.824 20.4154 19.1137 19.6851 19.1137H3.16215C2.43179 19.1137 1.73134 18.824 1.2149 18.3083C0.698459 17.7925 0.408325 17.0931 0.408325 16.3637V12.9262C0.408325 12.7439 0.480859 12.569 0.609969 12.4401C0.73908 12.3111 0.914191 12.2387 1.09678 12.2387V12.2387Z"
            fill="#006AFF"/>
    <path
            d="M10.9362 0.201979C11.0001 0.137954 11.0761 0.087158 11.1597 0.0524992C11.2434 0.0178403 11.333 0 11.4236 0C11.5142 0 11.6038 0.0178403 11.6875 0.0524992C11.7711 0.087158 11.8471 0.137954 11.911 0.201979L16.0418 4.32698C16.1711 4.45607 16.2437 4.63116 16.2437 4.81373C16.2437 4.99629 16.1711 5.17138 16.0418 5.30048C15.9125 5.42957 15.7372 5.50209 15.5544 5.50209C15.3715 5.50209 15.1962 5.42957 15.0669 5.30048L12.1121 2.34835V14.4387C12.1121 14.6211 12.0395 14.7959 11.9104 14.9249C11.7813 15.0538 11.6062 15.1262 11.4236 15.1262C11.241 15.1262 11.0659 15.0538 10.9368 14.9249C10.8077 14.7959 10.7351 14.6211 10.7351 14.4387V2.34835L7.78027 5.30048C7.71626 5.3644 7.64027 5.4151 7.55664 5.4497C7.47301 5.48429 7.38337 5.50209 7.29284 5.50209C7.20232 5.50209 7.11268 5.48429 7.02905 5.4497C6.94542 5.4151 6.86943 5.3644 6.80542 5.30048C6.74141 5.23656 6.69063 5.16067 6.65599 5.07715C6.62135 4.99364 6.60352 4.90412 6.60352 4.81373C6.60352 4.72333 6.62135 4.63382 6.65599 4.5503C6.69063 4.46678 6.74141 4.3909 6.80542 4.32698L10.9362 0.201979Z"
            fill="#006AFF"/>
</svg>