<svg xmlns="http://www.w3.org/2000/svg" width="24" height="14" fill="none" viewBox="0 0 24 14"><path stroke="#006AFF" d="M8.23104 7L8.23104 1.72C8.23104 1.62545 8.25004 1.53182 8.28694 1.44447C8.32384 1.35711 8.37794 1.27774 8.44613 1.21088C8.51432 1.14403 8.59527 1.09099 8.68437 1.05481C8.77346 1.01862 8.86896 1 8.96539 1L22.1837 1C22.2802 1 22.3757 1.01862 22.4648 1.05481C22.5539 1.09099 22.6348 1.14403 22.703 1.21088C22.7712 1.27774 22.8253 1.35712 22.8622 1.44447C22.8991 1.53182 22.9181 1.62545 22.9181 1.72L22.9181 12.28C22.9181 12.471 22.8407 12.6541 22.703 12.7891C22.5653 12.9241 22.3785 13 22.1837 13L8.96539 13C8.77063 13 8.58384 12.9241 8.44613 12.7891C8.30841 12.6541 8.23104 12.471 8.23104 12.28L8.23104 7ZM8.23104 7L2.09185 12.016C1.98462 12.1036 1.85416 12.1594 1.71574 12.1769C1.57733 12.1944 1.4367 12.1728 1.31032 12.1148C1.18394 12.0567 1.07706 11.9646 1.00217 11.8491C0.927294 11.7336 0.88752 11.5996 0.887514 11.4628L0.887515 2.5372C0.887753 2.40047 0.927693 2.26663 1.00267 2.15135C1.07764 2.03606 1.18454 1.94408 1.31088 1.88618C1.43721 1.82828 1.57774 1.80684 1.71605 1.82438C1.85435 1.84191 1.9847 1.89769 2.09185 1.9852L8.23104 7Z" strokeLinecap="round" strokeLinejoin="round" strokeWidth="1.5"/></svg>